<svg id="Mairie_et_bureau_administratif" xmlns="http://www.w3.org/2000/svg" viewBox="0 0 566.9 566.9"><style>.st0{fill:none}.st1{fill:#d13716}.st2,.st3{fill:#1e4382}.st3,.st4{stroke:#1e4382;stroke-width:18;stroke-linecap:round;stroke-linejoin:round;stroke-miterlimit:10}.st4{fill:none;stroke-width:17}</style><path class="st0" d="M28.5 28.5h510v510h-510z"/><path class="st1" d="M340.7 43.3h28.7v60.5h-28.7z"/><path class="st2" d="M285.7 43.3h28.7v68h-28.7zM115.5 385.7h-34c-4.7 0-8.5 3.8-8.5 8.5V445c0 4.7 3.8 8.5 8.5 8.5h33.9c4.7 0 8.5-3.8 8.5-8.5v-50.9c0-4.6-3.8-8.4-8.4-8.4zm-8.5 50.8H90v-33.9h17v33.9zm16.9-144.1c0-4.7-3.8-8.5-8.5-8.5H81.5c-4.7 0-8.5 3.8-8.5 8.5v50.9c0 4.7 3.8 8.5 8.5 8.5h33.9c4.7 0 8.5-3.8 8.5-8.5v-50.9zM107 334.8H90v-33.9h17v33.9zm0 0"/><path class="st2" d="M127.9 249.5c0-4.7-3.8-8.5-8.5-8.5H46.1v-16.5c0-4.7-3.8-8.5-8.5-8.5s-8.5 3.8-8.5 8.5v288.3c0 14 11.4 25.4 25.4 25.4h67.8c14 0 25.4-11.4 25.4-25.4 0-14-11.4-25.4-25.4-25.4-1.5 0-2.9.1-4.4.4-5.8-10.5-17-17.3-29.6-17.3-12.6 0-23.7 6.8-29.6 17.3-1.4-.3-2.9-.4-4.4-.4-3 0-5.8.6-8.5 1.6V258h73.3c5 0 8.8-3.8 8.8-8.5zM54.6 504.4c1.6 0 3.2.5 4.6 1.4 2.3 1.5 5.2 1.8 7.8.7 2.6-1 4.4-3.3 5.1-5.9 1.8-7.7 8.5-13.1 16.5-13.1 7.9 0 14.7 5.4 16.5 13.1.6 2.7 2.5 4.9 5.1 5.9 2.6 1 5.5.8 7.8-.7 5.5-3.6 13.1.8 13.1 7.1 0 4.7-3.8 8.5-8.5 8.5h-68c-4.7 0-8.5-3.8-8.5-8.5s3.8-8.5 8.5-8.5zm385.2-254.9c0 4.7 3.8 8.5 8.5 8.5h73.3v231c-2.7-1-5.5-1.6-8.5-1.6-1.5 0-2.9.1-4.4.4-5.8-10.5-17-17.3-29.6-17.3-12.6 0-23.7 6.8-29.6 17.3-1.4-.3-2.9-.4-4.4-.4-14 0-25.4 11.4-25.4 25.4 0 14 11.4 25.4 25.4 25.4H513c14 0 25.4-11.4 25.4-25.4V224.6c0-4.7-3.8-8.5-8.5-8.5s-8.5 3.8-8.5 8.5V241h-73.3c-4.6 0-8.3 3.8-8.3 8.5zM513 504.4c4.7 0 8.5 3.8 8.5 8.5s-3.8 8.5-8.5 8.5h-67.8c-4.7 0-8.5-3.8-8.5-8.5 0-6.3 7.5-10.7 13.1-7.1 2.3 1.5 5.2 1.8 7.8.7 2.6-1 4.4-3.3 5.1-5.9 1.8-7.7 8.5-13.1 16.5-13.1 7.9 0 14.7 5.4 16.5 13.1.6 2.7 2.5 4.9 5.1 5.9 2.6 1 5.5.8 7.8-.7 1.3-1 2.8-1.4 4.4-1.4zm0 0"/><path class="st2" d="M442.2 445c0 4.7 3.8 8.5 8.5 8.5h33.9c4.7 0 8.5-3.8 8.5-8.5v-50.9c0-4.7-3.8-8.5-8.5-8.5h-33.9c-4.7 0-8.5 3.8-8.5 8.5V445zm16.9-42.4h17v33.9h-17v-33.9zm-8.4-50.9h33.9c4.7 0 8.5-3.8 8.5-8.5v-50.9c0-4.7-3.8-8.5-8.5-8.5h-33.9c-4.7 0-8.5 3.8-8.5 8.5v50.9c0 4.7 3.8 8.5 8.5 8.5zm8.4-50.8h17v33.9h-17v-33.9zm-44-58.3L294 169.9V124c5.6 1 12.9 2 20.5 2 10.4 0 19-1.8 25.8-5.4 13.8-7.3 33.3 0 34.5.4h.1c2.8 1.1 6 .8 8.6-1 2.5-1.7 4-4.6 4-7.6V45.7c0-3.8-2.3-7.2-5.8-8.6-1.1-.5-28.2-11.2-50 .4-10.3 5.5-28.5 2.7-37.6.9-.2-4.9-4.3-8.8-9.2-8.8-5.1 0-9.2 4.1-9.2 9.2v129.6L152 242.6c-4 2.4-5.3 7.6-2.9 11.6s7.6 5.3 11.6 2.9l114.8-68.9 8-4.8 10.4 6.3 112.4 67.4c1.4.8 2.9 1.2 4.4 1.2 2.9 0 5.7-1.5 7.3-4.1 2.4-4 1.1-9.2-2.9-11.6zM294 57.2c12.3 2.2 32.2 4.1 46.3-3.4 9.3-4.9 21.4-3.2 28.7-1.3v47.8c-10.6-2.1-24.8-2.7-37.4 4-10.3 5.5-28.5 2.8-37.6.9v-48zm-10.8 321.7c-36.7 0-66.6 29.5-66.6 65.7v59.1h.1v23.1h133.1v-82.2c0-36.2-29.9-65.7-66.6-65.7zm-8.3 82.2c-4.6 0-8.3 3.7-8.3 8.2 0 4.5 3.7 8.2 8.3 8.2v32.9h-41.6v-65.7c0-24.4 18-44.6 41.6-48.5v64.9zm58.3 49.3h-41.6v-32.9c4.6 0 8.3-3.7 8.3-8.2 0-4.5-3.7-8.2-8.3-8.2v-65c23.6 3.9 41.6 24.2 41.6 48.5v65.8z"/><path class="st3" d="M159.1 249.6H410"/><path class="st4" d="M255.8 291.8V325c.8 14.5 12.7 26 27.4 26s26.6-11.5 27.4-26v-33.2h-54.8z"/><path class="st2" d="M160 525.9c4.7 0 8.5-3.8 8.5-8.5V292.3c0-4.7-3.8-8.5-8.5-8.5s-8.5 3.8-8.5 8.5v225.1c0 4.7 3.8 8.5 8.5 8.5zm32.7 0c4.7 0 8.5-3.8 8.5-8.5V292.3c0-4.7-3.8-8.5-8.5-8.5s-8.5 3.8-8.5 8.5v225.1c0 4.7 3.8 8.5 8.5 8.5zm178 0c4.7 0 8.5-3.8 8.5-8.5V292.3c0-4.7-3.8-8.5-8.5-8.5s-8.5 3.8-8.5 8.5v225.1c0 4.7 3.8 8.5 8.5 8.5zm33.6 0c4.7 0 8.5-3.8 8.5-8.5V292.3c0-4.7-3.8-8.5-8.5-8.5s-8.5 3.8-8.5 8.5v225.1c0 4.7 3.8 8.5 8.5 8.5zm0 0"/></svg>